<?xml version="1.0" encoding="UTF-8" standalone="no"?>
<!-- Created with Inkscape (http://www.inkscape.org/) -->

<svg
   xmlns:dc="http://purl.org/dc/elements/1.1/"
   xmlns:cc="http://creativecommons.org/ns#"
   xmlns:rdf="http://www.w3.org/1999/02/22-rdf-syntax-ns#"
   xmlns:svg="http://www.w3.org/2000/svg"
   xmlns="http://www.w3.org/2000/svg"
   xmlns:sodipodi="http://sodipodi.sourceforge.net/DTD/sodipodi-0.dtd"
   xmlns:inkscape="http://www.inkscape.org/namespaces/inkscape"
   width="28"
   height="28"
   id="svg8963"
   version="1.1"
   inkscape:version="0.48.4 r9939"
   sodipodi:docname="help.svg">
  <defs
     id="defs8965" />
  <sodipodi:namedview
     id="base"
     pagecolor="#ffffff"
     bordercolor="#666666"
     borderopacity="1.0"
     inkscape:pageopacity="0.0"
     inkscape:pageshadow="2"
     inkscape:zoom="5.6"
     inkscape:cx="18.231735"
     inkscape:cy="9.5813322"
     inkscape:document-units="px"
     inkscape:current-layer="layer1"
     showgrid="false"
     inkscape:window-width="696"
     inkscape:window-height="510"
     inkscape:window-x="342"
     inkscape:window-y="184"
     inkscape:window-maximized="0"
     inkscape:snap-page="true"
     fit-margin-top="0"
     fit-margin-left="0"
     fit-margin-right="0"
     fit-margin-bottom="0" />
  <metadata
     id="metadata8968">
    <rdf:RDF>
      <cc:Work
         rdf:about="">
        <dc:format>image/svg+xml</dc:format>
        <dc:type
           rdf:resource="http://purl.org/dc/dcmitype/StillImage" />
        <dc:title></dc:title>
      </cc:Work>
    </rdf:RDF>
  </metadata>
  <g
     inkscape:label="Layer 1"
     inkscape:groupmode="layer"
     id="layer1"
     transform="translate(-334.57143,-512.64789)">
    <path
       style="color:#000000;fill:#000000;fill-opacity:1;fill-rule:nonzero;stroke:none;stroke-width:1;marker:none;visibility:visible;display:inline;overflow:visible;enable-background:accumulate"
       d="M 0 0 L 0 28 L 28 28 L 28 0 L 0 0 z M 13.84375 5.875 L 14.15625 5.875 C 16.160852 5.875 17.125 6.8703978 17.125 8.875 L 17.125 11.09375 C 17.125 12.24684 16.788191 12.55638 15.8125 13.65625 L 14.96875 14.65625 C 14.596213 15.082006 14.625 15.374876 14.625 16.03125 L 14.625 17.75 L 13.0625 17.75 L 13.0625 15.46875 C 13.0625 14.262441 13.335988 14.016222 14.1875 13.09375 L 14.75 12.5 C 15.140277 12.074244 15.28125 11.764455 15.28125 11.25 L 15.28125 8.78125 C 15.28125 7.9652172 14.905553 7.5625 14.125 7.5625 L 13.71875 7.5625 C 12.938197 7.5625 12.5625 7.9652172 12.5625 8.78125 L 12.5625 11.71875 L 10.875 11.71875 L 10.875 8.875 C 10.875 6.8703978 11.856888 5.875 13.84375 5.875 z M 12.96875 19.46875 L 14.75 19.46875 L 14.75 22.125 L 12.96875 22.125 L 12.96875 19.46875 z "
       transform="translate(334.57143,512.64789)"
       id="rect9561" />
  </g>
</svg>
