<?xml version="1.0" encoding="UTF-8" standalone="no"?>
<!-- Created with Inkscape (http://www.inkscape.org/) -->

<svg
   xmlns:dc="http://purl.org/dc/elements/1.1/"
   xmlns:cc="http://creativecommons.org/ns#"
   xmlns:rdf="http://www.w3.org/1999/02/22-rdf-syntax-ns#"
   xmlns:svg="http://www.w3.org/2000/svg"
   xmlns="http://www.w3.org/2000/svg"
   version="1.1"
   width="780"
   height="137.06882"
   id="svg8646">
  <defs
     id="defs8648" />
  <metadata
     id="metadata8651">
    <rdf:RDF>
      <cc:Work
         rdf:about="">
        <dc:format>image/svg+xml</dc:format>
        <dc:type
           rdf:resource="http://purl.org/dc/dcmitype/StillImage" />
        <dc:title></dc:title>
      </cc:Work>
    </rdf:RDF>
  </metadata>
  <g
     transform="translate(-146.424,-433.74979)"
     id="layer1">
    <g
       id="text5718-1"
       style="font-size:93.85141754px;font-style:normal;font-variant:normal;font-weight:500;font-stretch:normal;text-align:start;line-height:125%;letter-spacing:0px;word-spacing:0px;writing-mode:lr-tb;text-anchor:start;fill:#000000;fill-opacity:1;stroke:none;font-family:QumpellkaNo12;-inkscape-font-specification:QumpellkaNo12 Medium">
      <path
         d="m 201.23535,541.14931 -1.054,0.22913 c 0.82487,6.59892 4.7659,9.25683 10.90656,9.25683 11.63977,0 14.61846,-14.48099 16.35985,-22.54634 l 6.7364,-29.23692 c 0.87069,-3.89519 4.81172,-18.33036 5.26998,-23.41702 3.0245,0 5.1325,0 5.72823,0 5.08667,0 12.14387,0.27495 19.61348,0.27495 14.20602,0 29.97014,-1.054 36.33993,-7.24049 1.60391,-1.74138 2.24547,-3.29946 2.24547,-4.67424 0,-3.75772 -3.20782,-6.23232 -7.9737,-6.23232 -6.36979,13.19784 -24.33357,15.5808 -49.58361,15.5808 -16.81809,0 -53.11221,-0.54991 -55.17437,-0.64156 l -0.41243,3.29946 c 2.06216,-0.13747 15.48916,-0.27495 28.59535,-0.32078 2.70372,0.27496 3.62024,1.2373 3.62024,3.7119 0,1.32895 -0.27495,3.07034 -0.64156,5.3158 l -8.84439,53.93707 c -0.82487,4.81172 -3.98686,6.96554 -6.82806,6.96554 -2.38295,0 -4.58259,-1.51226 -4.90337,-4.26181"
         id="path8701" />
      <path
         d="m 253.0186,505.26764 c -5.04084,0 -9.57761,1.32896 -12.60212,7.24049 l -2.6579,5.17832 0.82487,0.41244 2.6579,-5.17833 c 1.37477,-2.70372 2.97868,-4.35346 4.12433,-4.35346 0.82486,0 1.37477,0.91652 1.37477,3.11616 0,0.91652 -0.0917,2.06217 -0.32078,3.48277 l -5.45328,32.53638 c 0,0.0458 -0.0916,0.59574 -0.0916,0.64156 0,0.91652 3.16199,1.37478 6.23232,1.37478 l 5.49911,0 c 0.3666,0 0.91651,-0.1833 0.96234,-0.50408 l 4.90337,-19.2927 c 5.63658,-22.27136 31.25327,-42.02234 46.28415,-42.02234 5.31579,0 9.07352,2.65791 9.66926,8.89022 0.45826,0.1833 0.96234,0.27496 1.46643,0.27496 4.67423,0 7.7904,-3.02452 7.7904,-7.51545 0,-5.13249 -4.44512,-8.56944 -11.08987,-8.56944 -15.03087,0 -40.51009,16.49734 -51.27916,35.42341 0.0917,-0.64156 0.0917,-1.28313 0.0917,-1.87886 0,-5.1325 -1.87887,-9.25683 -8.38614,-9.25683"
         id="path8703" />
      <path
         d="m 325.24019,505.7259 c -1.05399,0 -4.58259,0.54991 -6.69057,5.36163 -2.2913,-4.12433 -6.8739,-6.32398 -14.11438,-6.32398 -17.5513,0 -29.28274,11.22736 -29.28274,27.99962 0,10.72325 8.15702,17.8721 20.34669,17.8721 11.68559,0 17.09306,-6.91972 20.43835,-13.93107 0,8.93604 5.17833,13.93107 10.72326,13.93107 3.89519,0 8.01953,-2.47461 10.67743,-7.69875 l 4.03268,-7.92788 -0.77904,-0.45826 -3.16199,6.14067 c -1.4206,2.74955 -4.12433,4.30763 -6.46145,4.30763 -2.29129,0 -4.21598,-1.51225 -4.21598,-4.85754 0,-0.64156 0.0917,-1.37478 0.22913,-2.15382 l 2.10799,-8.06535 c 1.09982,-3.8952 4.76589,-19.20106 5.22415,-24.19607 l -9.07353,0 m -8.11118,6.78223 c 0.18331,0.27495 0.22913,0.73321 0.22913,1.2373 0,0.68739 -0.0917,1.4206 -0.13748,1.87886 l -0.82486,12.00638 c -0.0458,0.59574 -0.27496,2.93286 -0.68739,3.8952 -2.70372,7.01136 -7.56128,15.99324 -16.17654,15.99324 -6.69057,0 -10.265,-3.66608 -10.265,-10.49413 0,-17.87208 7.56129,-29.78683 18.88027,-29.78683 3.16198,0 7.05719,1.51226 8.98187,5.26998"
         id="path8705" />
      <path
         d="m 360.98439,505.26764 c -5.04084,0 -9.57761,1.32896 -12.60212,7.24049 l -2.6579,5.17832 0.82486,0.41244 2.65791,-5.17833 c 1.37477,-2.70372 2.97868,-4.35346 4.12433,-4.35346 0.82486,0 1.4206,0.91652 1.4206,3.11616 0,0.91652 -0.13748,2.06217 -0.36661,3.48277 l -5.45328,32.53638 c 0,0.0458 -0.0917,0.59574 -0.0917,0.64156 0,0.91652 3.16199,1.37478 6.23232,1.37478 l 5.54493,0 c 0.27496,0 0.87069,-0.1833 0.91652,-0.50408 l 4.90337,-19.2927 c 0.50408,-2.10799 1.32895,-4.85755 1.97051,-7.74458 l 11.41065,-9.44013 c 2.06216,-1.64973 4.58259,-3.39112 6.46145,-3.39112 2.01634,0 2.61207,1.78722 2.61207,4.12433 0,2.97868 -1.00817,6.91971 -1.55808,9.48596 l -1.09982,4.90337 c -0.73321,3.34529 -1.19147,6.69058 -1.19147,9.80674 0,7.33214 2.70374,13.15203 11.41065,13.15203 3.66606,0 7.51544,-2.38295 10.31082,-7.88205 l 4.26181,-8.38614 -0.77904,-0.45826 -3.39112,6.59893 c -1.4206,2.74955 -3.80355,4.21598 -5.77406,4.21598 -1.74138,0 -3.16199,-1.19147 -3.16199,-3.75772 0,-0.87069 0.18331,-1.92469 0.54992,-3.16199 l 2.47459,-8.06535 c 1.37478,-4.58259 2.70373,-9.76092 2.70373,-14.20603 0,-6.14066 -2.52043,-10.90656 -10.99821,-10.90656 -3.98685,0 -9.25684,2.06217 -14.29768,6.1865 l -9.30265,7.65292 c 0.1833,-1.4206 0.32078,-2.79538 0.32078,-4.12433 0,-5.1325 -1.87887,-9.25683 -8.38614,-9.25683"
         id="path8707" />
      <path
         d="m 436.00137,550.68109 c 13.74775,0 25.98328,-5.22416 25.98328,-14.43515 0,-6.9197 -7.60711,-10.0817 -14.93924,-13.65612 -6.04901,-2.97868 -12.60212,-4.17016 -12.60212,-8.29448 0,-5.3158 4.9492,-7.24049 10.0817,-7.28632 7.24048,0 10.49412,2.97869 11.27316,11.319 3.8952,0 6.46145,-2.108 6.46145,-5.26998 0,-0.73321 -0.1833,-1.55808 -0.77904,-2.33712 -3.75772,-5.26997 -9.89839,-5.91154 -16.49732,-5.91154 -13.74775,0 -23.73781,4.49095 -23.73781,14.20603 0,6.18648 6.50729,10.03587 13.56447,12.28133 7.51543,2.33712 15.5808,4.30764 15.5808,8.61527 0,5.3158 -6.69059,8.47779 -13.93107,8.47779 -8.47778,0 -13.70194,-4.03269 -14.43516,-12.18969 l -0.0458,-0.32078 c -4.49093,0 -6.91971,1.87887 -6.91971,5.45328 0,0.77904 0.22913,1.55808 0.82487,2.38295 4.03267,5.72823 12.46464,6.96553 20.11756,6.96553"
         id="path8709" />
      <path
         d="m 500.4784,507.10067 c 7.46961,0 11.22734,2.24548 11.22734,10.17335 0,1.97051 -0.27495,4.30764 -0.73321,7.10301 0.3666,0.0917 0.82486,0.13748 1.37477,0.13748 3.39112,0 9.48596,-1.92469 9.48596,-6.96553 0,-8.29448 -10.12753,-12.7396 -20.94243,-12.7396 -17.64295,0 -31.02412,9.48598 -31.02412,27.63301 0,11.08985 8.38615,18.19288 22.1339,18.19288 9.94421,0 18.51366,-3.66608 24.10442,-9.89839 l -1.69556,-1.51226 c -3.66607,4.44511 -11.50231,8.29449 -18.2387,8.29449 -8.43196,0 -12.14386,-3.162 -12.14386,-11.18152 0,-14.61844 7.79041,-29.19109 16.45149,-29.23692"
         id="path8711" />
      <path
         d="m 541.72169,505.26764 c -5.04084,0 -9.57761,1.32896 -12.60211,7.24049 l -2.65791,5.17832 0.82487,0.41244 2.6579,-5.17833 c 1.37478,-2.70372 2.97868,-4.35346 4.12433,-4.35346 0.82487,0 1.37478,0.91652 1.37478,3.11616 0,0.91652 -0.0916,2.06217 -0.32078,3.48277 l -5.54494,33.08629 c 0,0.1833 -0.0458,0.36661 -0.0458,0.45826 0,0.82487 2.74955,1.09982 5.81989,1.09982 l 5.95736,-0.0916 c 0,0 0.91652,-0.1833 0.96234,-0.50408 l 4.90337,-19.2927 c 3.02451,-12.0522 10.63162,-22.54634 16.49732,-22.54634 3.7119,0 6.14067,3.16199 6.69058,9.11935 0.45826,0.1833 0.91652,0.27496 1.46643,0.27496 3.34529,0 7.74458,-3.16199 7.74458,-7.51545 0,-4.67423 -3.71191,-7.7904 -9.30266,-7.7904 -7.05718,0 -16.13071,6.91972 -20.25504,15.07672 0.0458,-0.77904 0.0917,-1.28313 0.0917,-2.01634 0,-5.1325 -1.87887,-9.25683 -8.38614,-9.25683"
         id="path8713" />
      <path
         d="m 593.18417,481.66731 c 0,3.84937 3.07034,7.10301 7.10302,7.10301 3.80354,0 7.10301,-3.07034 7.10301,-7.10301 0,-3.84937 -3.11617,-7.10302 -7.10301,-7.10302 -3.84937,0 -7.10302,3.07034 -7.10302,7.10302 m 19.20105,53.34133 -0.77904,-0.45826 -3.16199,6.14067 c -1.4206,2.74955 -4.12433,4.26181 -6.41562,4.26181 -2.15381,0 -3.98685,-1.37478 -3.98685,-4.30764 0,-0.77904 0.13748,-1.64973 0.41243,-2.6579 l 2.24547,-8.06535 c 1.05399,-3.94103 4.99502,-19.20106 5.45328,-24.19607 l -10.90656,0 c -5.04084,0 -9.57762,1.054 -12.60212,6.96553 l -2.6579,5.17833 0.82486,0.41243 2.65791,-5.17832 c 1.4206,-2.74955 3.07033,-4.44512 4.17015,-4.44512 0.82487,0 1.37478,0.8707 1.37478,2.93286 0,0.96234 -0.13748,2.15382 -0.36661,3.57442 l -2.19964,12.46464 c -0.59574,3.20781 -1.55808,7.65293 -1.55808,11.73143 0,7.24048 5.40746,10.90656 11.22734,10.90656 4.76589,0 9.71509,-2.42878 12.23551,-7.33214 l 4.03268,-7.92788"
         id="path8715" />
      <path
         d="m 627.27861,549.21467 4.39929,-7.51545 c 1.69556,5.86571 6.73641,8.98187 15.35167,8.98187 17.59713,0 29.46605,-11.27318 29.46605,-28.04544 0,-10.90655 -7.74459,-17.8721 -20.43835,-17.8721 -9.02769,0 -14.29768,4.12434 -17.78044,9.25683 l 4.39928,-18.46783 c 0.59574,-3.29946 1.55808,-6.50728 1.55808,-9.16518 0,-3.75772 -1.87887,-6.32397 -9.0277,-6.32397 l -7.14883,0 -0.13748,0.91652 c 0.96234,0 1.55808,0 1.55808,1.97051 0,1.28313 -0.27496,3.43695 -0.87069,7.01136 l -10.12753,58.29053 c 0,0.0458 0,0.0458 0,0.0916 0,0.91652 3.16199,1.37478 6.23233,1.37478 l 1.64973,0 c 0.27495,0 0.73321,-0.1833 0.91651,-0.50408 m 8.75275,-25.61668 c 2.74955,-6.9197 7.65293,-15.71828 15.99323,-15.71828 6.18649,0 10.265,4.21599 10.265,10.49413 0,19.33851 -6.69059,29.83266 -18.97191,29.83266 -4.39929,0 -10.49413,-2.88704 -10.49413,-10.90657 l 3.20781,-13.70194"
         id="path8717" />
      <path
         d="m 697.25477,534.87116 c 19.61346,-0.13748 36.75236,-6.41563 36.75236,-18.74279 0,-7.42378 -6.8739,-11.36482 -19.88843,-11.36482 -17.68878,0 -31.06996,9.53181 -31.06996,27.67884 0,11.08985 8.38615,18.19288 22.13391,18.19288 9.9442,0 18.51366,-3.66608 24.10441,-9.89839 l -1.69555,-1.51226 c -3.66607,4.44511 -11.50231,8.29449 -18.23871,8.29449 -8.43195,0 -12.14386,-3.162 -12.14386,-11.18152 0,-0.50408 0,-0.96234 0.0458,-1.46643 m 0.13748,-2.29129 c 1.14564,-13.24367 8.20284,-25.52502 16.26819,-25.52502 5.04084,0 7.65292,2.70373 7.65292,7.83623 0,12.55628 -9.21102,17.68879 -23.92111,17.68879"
         id="path8719" />
      <path
         d="m 754.72044,505.26764 c -5.04084,0 -9.57761,1.32896 -12.60212,7.24049 l -2.6579,5.17832 0.82487,0.41244 2.6579,-5.17833 c 1.37478,-2.70372 2.97868,-4.35346 4.12433,-4.35346 0.82486,0 1.37478,0.91652 1.37478,3.11616 0,0.91652 -0.0917,2.06217 -0.32078,3.48277 l -5.45329,32.53638 c 0,0.0458 -0.0916,0.59574 -0.0916,0.64156 0,0.91652 3.16199,1.37478 6.23232,1.37478 l 5.49911,0 c 0.36661,0 0.91652,-0.1833 0.96234,-0.50408 l 4.90337,-19.2927 c 5.63658,-22.27136 31.25327,-42.02234 46.28415,-42.02234 5.3158,0 9.07353,2.65791 9.66926,8.89022 0.45826,0.1833 0.96235,0.27496 1.46643,0.27496 4.67424,0 7.7904,-3.02452 7.7904,-7.51545 0,-5.13249 -4.44512,-8.56944 -11.08986,-8.56944 -15.03088,0 -40.5101,16.49734 -51.27917,35.42341 0.0916,-0.64156 0.0916,-1.28313 0.0916,-1.87886 0,-5.1325 -1.87887,-9.25683 -8.38614,-9.25683"
         id="path8721" />
      <path
         d="m 791.10621,534.87116 c 19.61346,-0.13748 36.75236,-6.41563 36.75236,-18.74279 0,-7.42378 -6.8739,-11.36482 -19.88843,-11.36482 -17.68878,0 -31.06996,9.53181 -31.06996,27.67884 0,11.08985 8.38616,18.19288 22.13391,18.19288 9.94421,0 18.51366,-3.66608 24.10441,-9.89839 l -1.69555,-1.51226 c -3.66607,4.44511 -11.50231,8.29449 -18.23871,8.29449 -8.43195,0 -12.14386,-3.162 -12.14386,-11.18152 0,-0.50408 0,-0.96234 0.0458,-1.46643 m 0.13748,-2.29129 c 1.14564,-13.24367 8.20284,-25.52502 16.26819,-25.52502 5.04084,0 7.65292,2.70373 7.65292,7.83623 0,12.55628 -9.21102,17.68879 -23.92111,17.68879"
         id="path8723" />
      <path
         d="m 848.57182,505.26764 c -5.04084,0 -9.57761,1.32896 -12.60212,7.24049 l -2.6579,5.17832 0.82487,0.41244 2.6579,-5.17833 c 1.37477,-2.70372 2.97868,-4.35346 4.12433,-4.35346 0.82486,0 1.37478,0.91652 1.37478,3.11616 0,0.91652 -0.0917,2.06217 -0.32079,3.48277 l -5.54493,33.08629 c 0,0.1833 -0.0458,0.36661 -0.0458,0.45826 0,0.82487 2.74955,1.09982 5.81988,1.09982 l 5.95737,-0.0916 c 0,0 0.91652,-0.1833 0.96234,-0.50408 l 4.90337,-19.2927 c 3.02451,-12.0522 10.63161,-22.54634 16.49732,-22.54634 3.7119,0 6.14067,3.16199 6.69058,9.11935 0.45826,0.1833 0.91652,0.27496 1.46643,0.27496 3.34529,0 7.74458,-3.16199 7.74458,-7.51545 0,-4.67423 -3.71191,-7.7904 -9.30266,-7.7904 -7.05718,0 -16.13072,6.91972 -20.25504,15.07672 0.0458,-0.77904 0.0916,-1.28313 0.0916,-2.01634 0,-5.1325 -1.87887,-9.25683 -8.38614,-9.25683"
         id="path8725" />
    </g>
    <g
       id="text5718"
       style="font-size:93.85141754px;font-style:normal;font-variant:normal;font-weight:500;font-stretch:normal;text-align:start;line-height:125%;letter-spacing:0px;word-spacing:0px;writing-mode:lr-tb;text-anchor:start;fill:#a0a0a0;fill-opacity:1;stroke:none;font-family:QumpellkaNo12;-inkscape-font-specification:QumpellkaNo12 Medium">
      <path
         d="m 197.42222,537.3362 -1.05399,0.22913 c 0.82486,6.59892 4.7659,9.25683 10.90656,9.25683 11.63976,0 14.61846,-14.48099 16.35984,-22.54634 l 6.73641,-29.23692 c 0.87069,-3.89519 4.81171,-18.33036 5.26997,-23.41702 3.02451,0 5.1325,0 5.72824,0 5.08667,0 12.14387,0.27495 19.61348,0.27495 14.20601,0 29.97014,-1.054 36.33993,-7.24049 1.6039,-1.74138 2.24547,-3.29946 2.24547,-4.67424 0,-3.75772 -3.20782,-6.23232 -7.97371,-6.23232 -6.36979,13.19784 -24.33357,15.5808 -49.58361,15.5808 -16.81808,0 -53.1122,-0.54991 -55.17437,-0.64156 l -0.41243,3.29946 c 2.06216,-0.13747 15.48916,-0.27495 28.59535,-0.32078 2.70373,0.27496 3.62025,1.2373 3.62025,3.7119 0,1.32895 -0.27496,3.07034 -0.64156,5.3158 l -8.8444,53.93707 c -0.82487,4.81171 -3.98686,6.96554 -6.82806,6.96554 -2.38294,0 -4.58259,-1.51226 -4.90337,-4.26181"
         id="path8674" />
      <path
         d="m 249.20547,501.45453 c -5.04084,0 -9.57761,1.32896 -12.60212,7.24049 l -2.6579,5.17832 0.82487,0.41244 2.6579,-5.17833 c 1.37478,-2.70372 2.97868,-4.35346 4.12433,-4.35346 0.82487,0 1.37478,0.91652 1.37478,3.11616 0,0.91652 -0.0917,2.06217 -0.32078,3.48277 l -5.45328,32.53638 c 0,0.0458 -0.0917,0.59574 -0.0917,0.64156 0,0.91652 3.16199,1.37478 6.23232,1.37478 l 5.49911,0 c 0.36661,0 0.91652,-0.1833 0.96234,-0.50409 l 4.90337,-19.29269 c 5.63658,-22.27136 31.25327,-42.02234 46.28415,-42.02234 5.3158,0 9.07353,2.65791 9.66926,8.89022 0.45826,0.1833 0.96235,0.27495 1.46643,0.27495 4.67424,0 7.7904,-3.02451 7.7904,-7.51544 0,-5.13249 -4.44512,-8.56944 -11.08986,-8.56944 -15.03088,0 -40.5101,16.49734 -51.27917,35.42341 0.0917,-0.64156 0.0917,-1.28313 0.0917,-1.87886 0,-5.1325 -1.87887,-9.25683 -8.38614,-9.25683"
         id="path8676" />
      <path
         d="m 321.42707,501.91279 c -1.054,0 -4.58259,0.54991 -6.69058,5.36163 -2.29129,-4.12433 -6.87389,-6.32398 -14.11437,-6.32398 -17.5513,0 -29.28275,11.22736 -29.28275,27.99962 0,10.72325 8.15702,17.8721 20.3467,17.8721 11.68559,0 17.09306,-6.91972 20.43834,-13.93107 0,8.93604 5.17833,13.93107 10.72326,13.93107 3.8952,0 8.01953,-2.47461 10.67743,-7.69875 l 4.03268,-7.92788 -0.77904,-0.45826 -3.16198,6.14067 c -1.42061,2.74955 -4.12434,4.30763 -6.46145,4.30763 -2.2913,0 -4.21599,-1.51225 -4.21599,-4.85754 0,-0.64156 0.0917,-1.37478 0.22913,-2.15382 l 2.10799,-8.06535 c 1.09982,-3.8952 4.7659,-19.20106 5.22415,-24.19607 l -9.07352,0 m -8.11118,6.78223 c 0.1833,0.27495 0.22913,0.73321 0.22913,1.2373 0,0.68739 -0.0917,1.4206 -0.13748,1.87886 l -0.82487,12.00638 c -0.0458,0.59574 -0.27495,2.93286 -0.68739,3.8952 -2.70372,7.01136 -7.56128,15.99324 -16.17653,15.99324 -6.69058,0 -10.265,-3.66608 -10.265,-10.49413 0,-17.87208 7.56128,-29.78683 18.88026,-29.78683 3.16199,0 7.05719,1.51226 8.98188,5.26998"
         id="path8678" />
      <path
         d="m 357.17126,501.45453 c -5.04084,0 -9.57761,1.32896 -12.60212,7.24049 l -2.6579,5.17832 0.82487,0.41244 2.6579,-5.17833 c 1.37478,-2.70372 2.97868,-4.35346 4.12433,-4.35346 0.82487,0 1.4206,0.91652 1.4206,3.11616 0,0.91652 -0.13747,2.06217 -0.3666,3.48277 l -5.45328,32.53638 c 0,0.0458 -0.0917,0.59574 -0.0917,0.64156 0,0.91652 3.16199,1.37478 6.23232,1.37478 l 5.54494,0 c 0.27495,0 0.87069,-0.1833 0.91651,-0.50409 l 4.90337,-19.29269 c 0.50409,-2.10799 1.32896,-4.85755 1.97052,-7.74458 l 11.41064,-9.44013 c 2.06217,-1.64973 4.58259,-3.39112 6.46145,-3.39112 2.01634,0 2.61208,1.78721 2.61208,4.12433 0,2.97868 -1.00817,6.91971 -1.55808,9.48596 l -1.09982,4.90337 c -0.73322,3.34529 -1.19148,6.69058 -1.19148,9.80674 0,7.33214 2.70374,13.15203 11.41065,13.15203 3.66607,0 7.51545,-2.38295 10.31083,-7.88205 l 4.2618,-8.38614 -0.77904,-0.45826 -3.39111,6.59893 c -1.4206,2.74955 -3.80355,4.21598 -5.77406,4.21598 -1.74139,0 -3.16199,-1.19147 -3.16199,-3.75772 0,-0.87069 0.1833,-1.92469 0.54991,-3.16199 l 2.4746,-8.06535 c 1.37477,-4.58259 2.70373,-9.76092 2.70373,-14.20603 0,-6.14066 -2.52044,-10.90656 -10.99822,-10.90656 -3.98685,0 -9.25683,2.06217 -14.29767,6.18649 l -9.30266,7.65293 c 0.1833,-1.4206 0.32078,-2.79538 0.32078,-4.12433 0,-5.1325 -1.87887,-9.25683 -8.38614,-9.25683"
         id="path8680" />
      <path
         d="m 432.18824,546.86798 c 13.74776,0 25.98328,-5.22416 25.98328,-14.43515 0,-6.9197 -7.6071,-10.0817 -14.93924,-13.65612 -6.04901,-2.97868 -12.60212,-4.17016 -12.60212,-8.29448 0,-5.3158 4.94921,-7.24049 10.0817,-7.28632 7.24048,0 10.49413,2.97869 11.27317,11.319 3.89519,0 6.46145,-2.108 6.46145,-5.26998 0,-0.73321 -0.18331,-1.55808 -0.77904,-2.33712 -3.75772,-5.26997 -9.8984,-5.91154 -16.49732,-5.91154 -13.74775,0 -23.73781,4.49095 -23.73781,14.20603 0,6.18648 6.50728,10.03587 13.56446,12.28133 7.51544,2.33712 15.5808,4.30764 15.5808,8.61527 0,5.3158 -6.69058,8.47779 -13.93107,8.47779 -8.47778,0 -13.70194,-4.03269 -14.43515,-12.18969 l -0.0458,-0.32078 c -4.49093,0 -6.91971,1.87887 -6.91971,5.45328 0,0.77904 0.22913,1.55808 0.82487,2.38295 4.03267,5.72823 12.46465,6.96553 20.11756,6.96553"
         id="path8682" />
      <path
         d="m 496.66527,503.28756 c 7.46962,0 11.22735,2.24548 11.22735,10.17335 0,1.97051 -0.27496,4.30764 -0.73322,7.10301 0.36661,0.0917 0.82487,0.13748 1.37478,0.13748 3.39111,0 9.48596,-1.92469 9.48596,-6.96553 0,-8.29448 -10.12753,-12.7396 -20.94243,-12.7396 -17.64295,0 -31.02413,9.48598 -31.02413,27.63301 0,11.08985 8.38615,18.19288 22.1339,18.19288 9.94421,0 18.51367,-3.66608 24.10442,-9.89839 l -1.69556,-1.51226 c -3.66606,4.44511 -11.5023,8.29449 -18.2387,8.29449 -8.43195,0 -12.14386,-3.162 -12.14386,-11.18152 0,-14.61844 7.79041,-29.19109 16.45149,-29.23692"
         id="path8684" />
      <path
         d="m 537.90857,501.45453 c -5.04084,0 -9.57762,1.32896 -12.60212,7.24049 l -2.6579,5.17832 0.82486,0.41244 2.65791,-5.17833 c 1.37477,-2.70372 2.97868,-4.35346 4.12433,-4.35346 0.82486,0 1.37477,0.91652 1.37477,3.11616 0,0.91652 -0.0916,2.06217 -0.32078,3.48277 l -5.54493,33.08629 c 0,0.1833 -0.0458,0.36661 -0.0458,0.45826 0,0.82487 2.74956,1.09982 5.81989,1.09982 l 5.95737,-0.0917 c 0,0 0.91651,-0.1833 0.96234,-0.50409 l 4.90337,-19.29269 c 3.0245,-12.0522 10.63161,-22.54634 16.49732,-22.54634 3.71189,0 6.14067,3.16199 6.69058,9.11935 0.45826,0.1833 0.91652,0.27496 1.46643,0.27496 3.34528,0 7.74457,-3.16199 7.74457,-7.51545 0,-4.67423 -3.7119,-7.7904 -9.30265,-7.7904 -7.05718,0 -16.13072,6.91972 -20.25505,15.07672 0.0458,-0.77904 0.0917,-1.28313 0.0917,-2.01634 0,-5.1325 -1.87887,-9.25683 -8.38614,-9.25683"
         id="path8686" />
      <path
         d="m 589.37105,477.8542 c 0,3.84937 3.07034,7.10301 7.10301,7.10301 3.80355,0 7.10301,-3.07034 7.10301,-7.10301 0,-3.84937 -3.11616,-7.10302 -7.10301,-7.10302 -3.84937,0 -7.10301,3.07034 -7.10301,7.10302 m 19.20104,53.34133 -0.77904,-0.45826 -3.16198,6.14067 c -1.4206,2.74955 -4.12433,4.26181 -6.41563,4.26181 -2.15381,0 -3.98685,-1.37478 -3.98685,-4.30764 0,-0.77904 0.13748,-1.64973 0.41243,-2.6579 l 2.24547,-8.06535 c 1.054,-3.94103 4.99503,-19.20106 5.45328,-24.19607 l -10.90656,0 c -5.04084,0 -9.57761,1.054 -12.60212,6.96553 l -2.6579,5.17833 0.82487,0.41243 2.6579,-5.17832 c 1.4206,-2.74955 3.07034,-4.44512 4.17016,-4.44512 0.82486,0 1.37477,0.8707 1.37477,2.93286 0,0.96234 -0.13748,2.15382 -0.3666,3.57442 l -2.19965,12.46464 c -0.59573,3.20781 -1.55808,7.65293 -1.55808,11.73143 0,7.24048 5.40746,10.90656 11.22734,10.90656 4.76589,0 9.7151,-2.42878 12.23552,-7.33214 l 4.03267,-7.92788"
         id="path8688" />
      <path
         d="m 623.46549,545.40155 4.39928,-7.51544 c 1.69556,5.86571 6.73642,8.98187 15.35168,8.98187 17.59712,0 29.46604,-11.27318 29.46604,-28.04544 0,-10.90655 -7.74459,-17.8721 -20.43834,-17.8721 -9.02769,0 -14.29768,4.12434 -17.78045,9.25683 l 4.39929,-18.46783 c 0.59573,-3.29946 1.55808,-6.50728 1.55808,-9.16518 0,-3.75772 -1.87887,-6.32397 -9.0277,-6.32397 l -7.14884,0 -0.13748,0.91652 c 0.96234,0 1.55808,0 1.55808,1.97051 0,1.28313 -0.27495,3.43695 -0.87069,7.01136 l -10.12752,58.29053 c 0,0.0458 0,0.0458 0,0.0916 0,0.91652 3.16199,1.37478 6.23232,1.37478 l 1.64973,0 c 0.27496,0 0.73322,-0.1833 0.91652,-0.50409 m 8.75274,-25.61667 c 2.74955,-6.9197 7.65294,-15.71828 15.99324,-15.71828 6.18649,0 10.265,4.21599 10.265,10.49413 0,19.33851 -6.69059,29.83266 -18.97192,29.83266 -4.39928,0 -10.49413,-2.88704 -10.49413,-10.90657 l 3.20781,-13.70194"
         id="path8690" />
      <path
         d="m 693.44164,531.05805 c 19.61346,-0.13748 36.75236,-6.41563 36.75236,-18.74279 0,-7.42378 -6.87389,-11.36482 -19.88843,-11.36482 -17.68878,0 -31.06995,9.53181 -31.06995,27.67884 0,11.08985 8.38615,18.19288 22.1339,18.19288 9.94421,0 18.51367,-3.66608 24.10442,-9.89839 l -1.69556,-1.51226 c -3.66607,4.44511 -11.5023,8.29449 -18.2387,8.29449 -8.43196,0 -12.14386,-3.162 -12.14386,-11.18152 0,-0.50408 0,-0.96234 0.0458,-1.46643 m 0.13748,-2.29129 c 1.14565,-13.24367 8.20284,-25.52502 16.26819,-25.52502 5.04084,0 7.65292,2.70373 7.65292,7.83623 0,12.55628 -9.21101,17.68879 -23.92111,17.68879"
         id="path8692" />
      <path
         d="m 750.90732,501.45453 c -5.04085,0 -9.57762,1.32896 -12.60212,7.24049 l -2.6579,5.17832 0.82486,0.41244 2.6579,-5.17833 c 1.37478,-2.70372 2.97869,-4.35346 4.12433,-4.35346 0.82487,0 1.37478,0.91652 1.37478,3.11616 0,0.91652 -0.0917,2.06217 -0.32078,3.48277 l -5.45328,32.53638 c 0,0.0458 -0.0916,0.59574 -0.0916,0.64156 0,0.91652 3.16199,1.37478 6.23232,1.37478 l 5.4991,0 c 0.36661,0 0.91652,-0.1833 0.96235,-0.50409 l 4.90337,-19.29269 c 5.63658,-22.27136 31.25327,-42.02234 46.28414,-42.02234 5.3158,0 9.07353,2.65791 9.66927,8.89022 0.45825,0.1833 0.96234,0.27495 1.46642,0.27495 4.67424,0 7.79041,-3.02451 7.79041,-7.51544 0,-5.13249 -4.44512,-8.56944 -11.08987,-8.56944 -15.03088,0 -40.51009,16.49734 -51.27917,35.42341 0.0916,-0.64156 0.0916,-1.28313 0.0916,-1.87886 0,-5.1325 -1.87886,-9.25683 -8.38613,-9.25683"
         id="path8694" />
      <path
         d="m 787.29308,531.05805 c 19.61346,-0.13748 36.75237,-6.41563 36.75237,-18.74279 0,-7.42378 -6.8739,-11.36482 -19.88844,-11.36482 -17.68877,0 -31.06995,9.53181 -31.06995,27.67884 0,11.08985 8.38615,18.19288 22.1339,18.19288 9.94421,0 18.51367,-3.66608 24.10442,-9.89839 l -1.69556,-1.51226 c -3.66607,4.44511 -11.5023,8.29449 -18.2387,8.29449 -8.43196,0 -12.14386,-3.162 -12.14386,-11.18152 0,-0.50408 0,-0.96234 0.0458,-1.46643 m 0.13748,-2.29129 c 1.14565,-13.24367 8.20284,-25.52502 16.26819,-25.52502 5.04084,0 7.65292,2.70373 7.65292,7.83623 0,12.55628 -9.21101,17.68879 -23.92111,17.68879"
         id="path8696" />
      <path
         d="m 844.7587,501.45453 c -5.04085,0 -9.57762,1.32896 -12.60212,7.24049 l -2.6579,5.17832 0.82486,0.41244 2.6579,-5.17833 c 1.37478,-2.70372 2.97869,-4.35346 4.12433,-4.35346 0.82487,0 1.37478,0.91652 1.37478,3.11616 0,0.91652 -0.0916,2.06217 -0.32078,3.48277 l -5.54493,33.08629 c 0,0.1833 -0.0458,0.36661 -0.0458,0.45826 0,0.82487 2.74956,1.09982 5.81989,1.09982 l 5.95736,-0.0917 c 0,0 0.91652,-0.1833 0.96235,-0.50409 l 4.90337,-19.29269 c 3.0245,-12.0522 10.63161,-22.54634 16.49732,-22.54634 3.71189,0 6.14067,3.16199 6.69058,9.11935 0.45825,0.1833 0.91651,0.27496 1.46642,0.27496 3.34529,0 7.74458,-3.16199 7.74458,-7.51545 0,-4.67423 -3.7119,-7.7904 -9.30266,-7.7904 -7.05718,0 -16.13071,6.91972 -20.25504,15.07672 0.0458,-0.77904 0.0916,-1.28313 0.0916,-2.01634 0,-5.1325 -1.87886,-9.25683 -8.38613,-9.25683"
         id="path8698" />
    </g>
  </g>
</svg>
