<?xml version="1.0" encoding="UTF-8" standalone="no"?>
<!-- Created with Inkscape (http://www.inkscape.org/) -->

<svg
   xmlns:dc="http://purl.org/dc/elements/1.1/"
   xmlns:cc="http://creativecommons.org/ns#"
   xmlns:rdf="http://www.w3.org/1999/02/22-rdf-syntax-ns#"
   xmlns:svg="http://www.w3.org/2000/svg"
   xmlns="http://www.w3.org/2000/svg"
   version="1.1"
   width="40"
   height="28"
   id="svg7906">
  <defs
     id="defs7908" />
  <metadata
     id="metadata7911">
    <rdf:RDF>
      <cc:Work
         rdf:about="">
        <dc:format>image/svg+xml</dc:format>
        <dc:type
           rdf:resource="http://purl.org/dc/dcmitype/StillImage" />
        <dc:title></dc:title>
      </cc:Work>
    </rdf:RDF>
  </metadata>
  <g
     transform="translate(-677.14288,-538.36218)"
     id="layer1">
    <path
       d="M 0,0 0,28 40,28 40,0 0,0 z m 29.5,4.875 3,0 c 1,0 1,0 1,1 l 0,16 -23,0 -4.78125,-9.53125 C 5.48751,11.88125 5.5,11.875 6.5,11.875 l 3.5,0 0.5,10 0,-10 0,-4 c 0,-1 0,-1 1,-1 l 17,0 0,-1 c 0,-1 0,-1 1,-1 z"
       transform="translate(677.14288,538.36218)"
       id="rect3886-0-57-0-4"
       style="color:#000000;fill:#000000;fill-opacity:1;fill-rule:nonzero;stroke:none;stroke-width:1px;marker:none;visibility:visible;display:inline;overflow:visible;enable-background:accumulate" />
  </g>
</svg>
