<?xml version="1.0" encoding="UTF-8" standalone="no"?>
<!-- Created with Inkscape (http://www.inkscape.org/) -->

<svg
   xmlns:dc="http://purl.org/dc/elements/1.1/"
   xmlns:cc="http://creativecommons.org/ns#"
   xmlns:rdf="http://www.w3.org/1999/02/22-rdf-syntax-ns#"
   xmlns:svg="http://www.w3.org/2000/svg"
   xmlns="http://www.w3.org/2000/svg"
   version="1.1"
   width="40"
   height="28"
   id="svg4745">
  <defs
     id="defs4747" />
  <metadata
     id="metadata4750">
    <rdf:RDF>
      <cc:Work
         rdf:about="">
        <dc:format>image/svg+xml</dc:format>
        <dc:type
           rdf:resource="http://purl.org/dc/dcmitype/StillImage" />
        <dc:title></dc:title>
      </cc:Work>
    </rdf:RDF>
  </metadata>
  <g
     transform="translate(-577.14288,-652.64789)"
     id="layer1">
    <path
       d="M 0,0 0,28 40,28 40,0 0,0 z m 33.125,3.96875 c 0.368,0 0.71126,0.0435 1.03125,0.1875 0.32,0.128 0.60375,0.3225 0.84375,0.5625 0.23999,0.24 0.40326,0.52375 0.53125,0.84375 0.14405,0.32 0.21874,0.66325 0.21875,1.03125 l 0,14.78125 c 0,0.368 -0.07475,0.71125 -0.21875,1.03125 C 35.40326,22.72625 35.24,23.01 35,23.25 c -0.24001,0.24 -0.52375,0.4185 -0.84375,0.5625 -0.32,0.12805 -0.66325,0.21875 -1.03125,0.21875 -0.36799,0 -0.71125,-0.09075 -1.03125,-0.21875 C 31.77376,23.6685 31.49,23.49 31.25,23.25 31.00999,23.01 30.8315,22.72625 30.6875,22.40625 30.55945,22.08625 30.46875,21.743 30.46875,21.375 l 0,-14.78125 c 0,-0.368 0.09076,-0.71125 0.21875,-1.03125 0.144,-0.32 0.3225,-0.60375 0.5625,-0.84375 0.23999,-0.24 0.52376,-0.4345 0.84375,-0.5625 0.32,-0.144 0.66326,-0.1875 1.03125,-0.1875 z M 12,4 12,14 20,4 20,24 12,14 12,24 4,14 12,4 z m 13.59375,0.125 1.5,0 0,19.71875 -1.5,0 0,-16.78125 L 24.40625,9.125 23.125,8.40625 25.59375,4.125 z M 33.125,5.4375 c -0.31999,0 -0.5885,0.11975 -0.8125,0.34375 -0.22399,0.224 -0.34375,0.4925 -0.34375,0.8125 l 0,14.78125 c 0,0.32 0.11976,0.5885 0.34375,0.8125 0.224,0.224 0.49251,0.34375 0.8125,0.34375 0.32,0 0.58851,-0.11975 0.8125,-0.34375 0.224,-0.224 0.34374,-0.4925 0.34375,-0.8125 l 0,-14.78125 c 0,-0.32 -0.11975,-0.5885 -0.34375,-0.8125 C 33.71351,5.55725 33.445,5.4375 33.125,5.4375 z"
       transform="translate(577.14288,652.64789)"
       id="rect3886-0-5-80-0"
       style="color:#000000;fill:#000000;fill-opacity:1;fill-rule:nonzero;stroke:none;stroke-width:1px;marker:none;visibility:visible;display:inline;overflow:visible;enable-background:accumulate" />
    <g
       transform="translate(-3.8648682,-5.0349121)"
       id="g5087" />
  </g>
</svg>
