<?xml version="1.0" encoding="UTF-8" standalone="no"?>
<!-- Created with Inkscape (http://www.inkscape.org/) -->

<svg
   xmlns:dc="http://purl.org/dc/elements/1.1/"
   xmlns:cc="http://creativecommons.org/ns#"
   xmlns:rdf="http://www.w3.org/1999/02/22-rdf-syntax-ns#"
   xmlns:svg="http://www.w3.org/2000/svg"
   xmlns="http://www.w3.org/2000/svg"
   version="1.1"
   width="40"
   height="28"
   id="svg4745">
  <defs
     id="defs4747" />
  <metadata
     id="metadata4750">
    <rdf:RDF>
      <cc:Work
         rdf:about="">
        <dc:format>image/svg+xml</dc:format>
        <dc:type
           rdf:resource="http://purl.org/dc/dcmitype/StillImage" />
        <dc:title></dc:title>
      </cc:Work>
    </rdf:RDF>
  </metadata>
  <g
     transform="translate(-577.14288,-652.64789)"
     id="layer1">
    <path
       d="M 0,0 0,28 40,28 40,0 0,0 z m 33.125,3.96875 c 0.368,0 0.71125,0.07475 1.03125,0.21875 C 34.47624,4.31591 34.76,4.51 35,4.75 35.24,4.99041 35.40325,5.2425 35.53125,5.5625 35.6753,5.8829 35.74999,6.257 35.75,6.625 l 0,14.78125 c 0,0.36801 -0.07475,0.71125 -0.21875,1.03125 -0.128,0.32001 -0.29125,0.60375 -0.53125,0.84375 -0.24001,0.24001 -0.52375,0.4185 -0.84375,0.5625 -0.32001,0.128 -0.66325,0.1875 -1.03125,0.1875 -0.368,0 -0.71125,-0.05949 -1.03125,-0.1875 -0.32,-0.144 -0.60375,-0.32249 -0.84375,-0.5625 -0.24,-0.24 -0.4185,-0.52374 -0.5625,-0.84375 -0.12805,-0.32 -0.21875,-0.66324 -0.21875,-1.03125 l 0,-14.78125 c 0,-0.3676 0.09075,-0.74249 0.21875,-1.0625 C 30.8315,5.2429 31.01,4.99001 31.25,4.75 31.49,4.51 31.77375,4.31551 32.09375,4.1875 32.41375,4.04345 32.757,3.96916 33.125,3.96875 z M 4,4 12,14 12,4 20,14 12,24 12,14 4,24 4,4 z m 21.59375,0.125 1.5,0 0,19.75 -1.5,0 0,-16.78125 -1.1875,2.0625 L 23.125,8.40625 25.59375,4.125 z M 33.125,5.46875 c -0.32,0 -0.5885,0.08849 -0.8125,0.3125 -0.224,0.22439 -0.34375,0.52374 -0.34375,0.84375 l 0,14.78125 c 0,0.32 0.11975,0.58849 0.34375,0.8125 0.224,0.224 0.4925,0.3125 0.8125,0.3125 0.32,0 0.5885,-0.0885 0.8125,-0.3125 0.224,-0.22401 0.34374,-0.4925 0.34375,-0.8125 l 0,-14.78125 c 0,-0.31961 -0.11975,-0.61975 -0.34375,-0.84375 -0.224,-0.224 -0.4925,-0.3121 -0.8125,-0.3125 z"
       transform="translate(577.14288,652.64789)"
       id="rect3886-0-5-80-0"
       style="color:#000000;fill:#000000;fill-opacity:1;fill-rule:nonzero;stroke:none;stroke-width:1px;marker:none;visibility:visible;display:inline;overflow:visible;enable-background:accumulate" />
  </g>
</svg>
