<?xml version="1.0" encoding="UTF-8" standalone="no"?>
<!-- Created with Inkscape (http://www.inkscape.org/) -->

<svg
   xmlns:dc="http://purl.org/dc/elements/1.1/"
   xmlns:cc="http://creativecommons.org/ns#"
   xmlns:rdf="http://www.w3.org/1999/02/22-rdf-syntax-ns#"
   xmlns:svg="http://www.w3.org/2000/svg"
   xmlns="http://www.w3.org/2000/svg"
   version="1.1"
   width="40"
   height="28"
   id="svg4745">
  <defs
     id="defs4747" />
  <metadata
     id="metadata4750">
    <rdf:RDF>
      <cc:Work
         rdf:about="">
        <dc:format>image/svg+xml</dc:format>
        <dc:type
           rdf:resource="http://purl.org/dc/dcmitype/StillImage" />
        <dc:title></dc:title>
      </cc:Work>
    </rdf:RDF>
  </metadata>
  <g
     transform="translate(-577.14288,-652.64789)"
     id="layer1">
    <path
       d="M 0,0 0,28 40,28 40,0 0,0 z m 6.84375,3.96875 c 0.368,0 0.71125,0.07475 1.03125,0.21875 0.32,0.128 0.60375,0.3225 0.84375,0.5625 0.24,0.24 0.4345,0.4925 0.5625,0.8125 C 9.4253,5.8825 9.5,6.22575 9.5,6.59375 l 0,6.75 c 0,0.368 -0.07475,0.71125 -0.21875,1.03125 -0.128,0.32 -0.3225,0.60375 -0.5625,0.84375 C 8.47875,15.45875 8.195,15.6685 7.875,15.8125 7.555,15.9405 7.21175,16 6.84375,16 c -0.32,0 -0.5885,0.11975 -0.8125,0.34375 -0.224,0.224 -0.34375,0.4925 -0.34375,0.8125 l 0,5.21875 2.3125,0 0,-2.9375 1.5,0 0,4.4375 -5.28125,0 0,-6.71875 c 0,-0.368 0.0595,-0.71125 0.1875,-1.03125 0.144,-0.32 0.3225,-0.60375 0.5625,-0.84375 0.24,-0.24 0.52375,-0.4345 0.84375,-0.5625 C 6.1325,14.5747 6.47575,14.5 6.84375,14.5 c 0.32,0 0.5885,-0.11975 0.8125,-0.34375 C 7.88025,13.93225 8,13.66375 8,13.34375 l 0,-6.75 c 0,-0.32 -0.11975,-0.5885 -0.34375,-0.8125 -0.224,-0.224 -0.4925,-0.3125 -0.8125,-0.3125 -0.32,0 -0.5885,0.0885 -0.8125,0.3125 -0.224,0.224 -0.34375,0.4925 -0.34375,0.8125 l 0,2.15625 -1.46875,0 0,-2.15625 c 0,-0.368 0.0595,-0.71125 0.1875,-1.03125 C 4.55025,5.2425 4.72875,4.99 4.96875,4.75 5.20875,4.51 5.4925,4.3155 5.8125,4.1875 6.1325,4.04345 6.47575,3.96875 6.84375,3.96875 z m 7.40625,0 c 0.36799,0 0.71124,0.07475 1.03125,0.21875 0.31999,0.128 0.60375,0.3225 0.84375,0.5625 0.24,0.24 0.43449,0.4925 0.5625,0.8125 0.14405,0.32 0.21874,0.66325 0.21875,1.03125 l 0,14.8125 c 0,0.368 -0.07475,0.71125 -0.21875,1.03125 -0.12801,0.32 -0.3225,0.5725 -0.5625,0.8125 -0.24001,0.24 -0.52376,0.44975 -0.84375,0.59375 -0.32001,0.128 -0.66326,0.1875 -1.03125,0.1875 -0.36801,0 -0.71126,-0.0595 -1.03125,-0.1875 C 12.89874,23.69975 12.615,23.49 12.375,23.25 c -0.24,-0.24 -0.4185,-0.4925 -0.5625,-0.8125 -0.128,-0.32 -0.18751,-0.66325 -0.1875,-1.03125 l 0,-1.96875 1.46875,0 0,1.96875 c 0,0.32 0.11974,0.5885 0.34375,0.8125 0.22399,0.224 0.49249,0.3125 0.8125,0.3125 0.31999,0 0.58849,-0.0885 0.8125,-0.3125 0.22399,-0.224 0.34374,-0.4925 0.34375,-0.8125 l 0,-5.53125 c -0.16001,0.08 -0.33925,0.1395 -0.53125,0.1875 -0.17601,0.032 -0.385,0.0625 -0.625,0.0625 -0.36801,0 -0.71126,-0.0595 -1.03125,-0.1875 C 12.89874,15.7935 12.615,15.615 12.375,15.375 12.135,15.135 11.9565,14.85125 11.8125,14.53125 11.6845,14.21125 11.62499,13.868 11.625,13.5 l 0,-6.90625 c 0,-0.368 0.05949,-0.71125 0.1875,-1.03125 C 11.95649,5.2425 12.135,4.99 12.375,4.75 12.61499,4.51 12.89874,4.3155 13.21875,4.1875 13.53874,4.04345 13.88199,3.96875 14.25,3.96875 z m 10.9375,0 c 0.36799,0 0.71124,0.07475 1.03125,0.21875 0.31999,0.128 0.5725,0.3225 0.8125,0.5625 0.24,0.24 0.43449,0.4925 0.5625,0.8125 0.14405,0.32 0.21875,0.66325 0.21875,1.03125 l 0,14.8125 c 0,0.368 -0.07475,0.71125 -0.21875,1.03125 -0.12801,0.32 -0.3225,0.5725 -0.5625,0.8125 -0.24,0.24 -0.49251,0.44975 -0.8125,0.59375 -0.32001,0.128 -0.66326,0.1875 -1.03125,0.1875 -0.36801,0 -0.71126,-0.0595 -1.03125,-0.1875 C 23.83624,23.69975 23.5525,23.49 23.3125,23.25 c -0.24,-0.24 -0.44975,-0.4925 -0.59375,-0.8125 -0.128,-0.32 -0.1875,-0.66325 -0.1875,-1.03125 l 0,-14.8125 c 0,-0.368 0.05949,-0.71125 0.1875,-1.03125 0.144,-0.32 0.35375,-0.5725 0.59375,-0.8125 0.24,-0.24 0.52374,-0.4345 0.84375,-0.5625 0.31999,-0.14405 0.66324,-0.21875 1.03125,-0.21875 z m 4.375,0.15625 6.21875,0 -3.75,19.75 -1.5,0 3.5,-18.25 -4.46875,0 0,-1.5 z M 14.25,5.46875 c -0.32001,0 -0.58851,0.0885 -0.8125,0.3125 -0.22401,0.224 -0.34376,0.4925 -0.34375,0.8125 l 0,6.90625 c 0,0.32 0.11974,0.5885 0.34375,0.8125 0.22399,0.224 0.49249,0.34375 0.8125,0.34375 0.31999,0 0.58849,-0.11975 0.8125,-0.34375 0.22399,-0.224 0.34374,-0.4925 0.34375,-0.8125 l 0,-6.90625 c 0,-0.32 -0.11976,-0.5885 -0.34375,-0.8125 -0.22401,-0.224 -0.49251,-0.3125 -0.8125,-0.3125 z m 10.9375,0 c -0.32001,0 -0.61976,0.0885 -0.84375,0.3125 -0.224,0.224 -0.3125,0.4925 -0.3125,0.8125 l 0,14.8125 c 0,0.32 0.08849,0.5885 0.3125,0.8125 0.22399,0.224 0.52374,0.3125 0.84375,0.3125 0.31999,0 0.58849,-0.0885 0.8125,-0.3125 0.224,-0.224 0.3125,-0.4925 0.3125,-0.8125 l 0,-14.8125 c 0,-0.32 -0.08851,-0.5885 -0.3125,-0.8125 -0.22401,-0.224 -0.49251,-0.3125 -0.8125,-0.3125 z M 19.71875,9 c 0.30399,0 0.54199,0.1045 0.75,0.3125 0.20799,0.208 0.31249,0.47725 0.3125,0.78125 0,0.304 -0.10451,0.542 -0.3125,0.75 -0.20801,0.208 -0.44601,0.3125 -0.75,0.3125 -0.30401,0 -0.57326,-0.1045 -0.78125,-0.3125 -0.20801,-0.208 -0.3125,-0.446 -0.3125,-0.75 0,-0.304 0.10449,-0.57325 0.3125,-0.78125 C 19.14549,9.1045 19.41474,9 19.71875,9 z m 0,9.78125 c 0.30399,0 0.54199,0.1045 0.75,0.3125 0.20799,0.208 0.31249,0.47725 0.3125,0.78125 0,0.304 -0.10451,0.542 -0.3125,0.75 -0.20801,0.208 -0.44601,0.3125 -0.75,0.3125 -0.30401,0 -0.57326,-0.1045 -0.78125,-0.3125 -0.20801,-0.208 -0.3125,-0.446 -0.3125,-0.75 0,-0.304 0.10449,-0.57325 0.3125,-0.78125 0.20799,-0.208 0.47724,-0.3125 0.78125,-0.3125 z"
       transform="translate(577.14288,652.64789)"
       id="rect3886-0-5-80-0"
       style="color:#000000;fill:#000000;fill-opacity:1;fill-rule:nonzero;stroke:none;stroke-width:1px;marker:none;visibility:visible;display:inline;overflow:visible;enable-background:accumulate" />
  </g>
</svg>
